<mxfile host="app.diagrams.net" modified="2020-12-16T15:36:18.731Z" agent="5.0 (Windows NT 10.0; Win64; x64) AppleWebKit/537.36 (KHTML, like Gecko) Chrome/87.0.4280.88 Safari/537.36 Edg/87.0.664.60" etag="kkZ26Rs9LCA_TvnIyi9R" version="14.0.4" type="github">
  <diagram id="ggRN562XI57otyQyplnl" name="Page-1">
    <mxGraphModel dx="1038" dy="500" grid="1" gridSize="10" guides="1" tooltips="1" connect="1" arrows="1" fold="1" page="1" pageScale="1" pageWidth="850" pageHeight="1100" math="0" shadow="0">
      <root>
        <mxCell id="0" />
        <mxCell id="1" parent="0" />
        <mxCell id="kedC6RMu_d--TANpmm6A-1" value="Provider" style="shape=umlActor;verticalLabelPosition=bottom;verticalAlign=top;html=1;outlineConnect=0;" parent="1" vertex="1">
          <mxGeometry x="50" y="110" width="30" height="60" as="geometry" />
        </mxCell>
        <mxCell id="kedC6RMu_d--TANpmm6A-2" value="" style="ellipse;shape=umlControl;whiteSpace=wrap;html=1;" parent="1" vertex="1">
          <mxGeometry x="535" y="105" width="50" height="60" as="geometry" />
        </mxCell>
        <mxCell id="kedC6RMu_d--TANpmm6A-3" value=":V_Product" style="text;html=1;strokeColor=none;fillColor=none;align=center;verticalAlign=middle;whiteSpace=wrap;rounded=0;" parent="1" vertex="1">
          <mxGeometry x="280" y="170" width="40" height="20" as="geometry" />
        </mxCell>
        <mxCell id="kedC6RMu_d--TANpmm6A-6" value="" style="ellipse;shape=umlEntity;whiteSpace=wrap;html=1;" parent="1" vertex="1">
          <mxGeometry x="750" y="120" width="50" height="50" as="geometry" />
        </mxCell>
        <mxCell id="kedC6RMu_d--TANpmm6A-7" value=":C_ChangeProduct" style="text;html=1;strokeColor=none;fillColor=none;align=center;verticalAlign=middle;whiteSpace=wrap;rounded=0;" parent="1" vertex="1">
          <mxGeometry x="535" y="170" width="40" height="20" as="geometry" />
        </mxCell>
        <mxCell id="kedC6RMu_d--TANpmm6A-8" value=":M_Product" style="text;html=1;strokeColor=none;fillColor=none;align=center;verticalAlign=middle;whiteSpace=wrap;rounded=0;" parent="1" vertex="1">
          <mxGeometry x="760" y="170" width="40" height="20" as="geometry" />
        </mxCell>
        <mxCell id="kedC6RMu_d--TANpmm6A-11" value="" style="endArrow=none;dashed=1;html=1;" parent="1" edge="1">
          <mxGeometry width="50" height="50" relative="1" as="geometry">
            <mxPoint x="780" y="600" as="sourcePoint" />
            <mxPoint x="780" y="190" as="targetPoint" />
          </mxGeometry>
        </mxCell>
        <mxCell id="kedC6RMu_d--TANpmm6A-12" value="" style="endArrow=none;dashed=1;html=1;" parent="1" edge="1">
          <mxGeometry width="50" height="50" relative="1" as="geometry">
            <mxPoint x="560" y="600" as="sourcePoint" />
            <mxPoint x="560" y="190" as="targetPoint" />
          </mxGeometry>
        </mxCell>
        <mxCell id="kedC6RMu_d--TANpmm6A-13" value="" style="endArrow=none;dashed=1;html=1;" parent="1" edge="1" source="kedC6RMu_d--TANpmm6A-4">
          <mxGeometry width="50" height="50" relative="1" as="geometry">
            <mxPoint x="310" y="430" as="sourcePoint" />
            <mxPoint x="310" y="120" as="targetPoint" />
          </mxGeometry>
        </mxCell>
        <mxCell id="kedC6RMu_d--TANpmm6A-14" value="" style="endArrow=none;dashed=1;html=1;" parent="1" edge="1">
          <mxGeometry width="50" height="50" relative="1" as="geometry">
            <mxPoint x="60" y="600.7999877929688" as="sourcePoint" />
            <mxPoint x="60" y="190" as="targetPoint" />
          </mxGeometry>
        </mxCell>
        <mxCell id="kedC6RMu_d--TANpmm6A-15" value="" style="html=1;points=[];perimeter=orthogonalPerimeter;" parent="1" vertex="1">
          <mxGeometry x="60" y="220" width="10" height="350" as="geometry" />
        </mxCell>
        <mxCell id="kedC6RMu_d--TANpmm6A-20" value="" style="html=1;points=[];perimeter=orthogonalPerimeter;" parent="1" vertex="1">
          <mxGeometry x="305" y="240" width="10" height="320" as="geometry" />
        </mxCell>
        <mxCell id="kedC6RMu_d--TANpmm6A-21" value="" style="html=1;points=[];perimeter=orthogonalPerimeter;" parent="1" vertex="1">
          <mxGeometry x="555" y="250" width="10" height="260" as="geometry" />
        </mxCell>
        <mxCell id="kedC6RMu_d--TANpmm6A-26" value="" style="endArrow=classic;html=1;" parent="1" edge="1">
          <mxGeometry width="50" height="50" relative="1" as="geometry">
            <mxPoint x="70" y="240" as="sourcePoint" />
            <mxPoint x="310" y="240" as="targetPoint" />
          </mxGeometry>
        </mxCell>
        <mxCell id="kedC6RMu_d--TANpmm6A-28" value="SuaThongtinSP(:Product)" style="text;html=1;strokeColor=none;fillColor=none;align=center;verticalAlign=middle;whiteSpace=wrap;rounded=0;" parent="1" vertex="1">
          <mxGeometry x="181" y="220" width="40" height="20" as="geometry" />
        </mxCell>
        <mxCell id="kedC6RMu_d--TANpmm6A-29" value="" style="endArrow=classic;html=1;" parent="1" source="kedC6RMu_d--TANpmm6A-20" edge="1">
          <mxGeometry width="50" height="50" relative="1" as="geometry">
            <mxPoint x="320" y="260" as="sourcePoint" />
            <mxPoint x="550" y="260" as="targetPoint" />
          </mxGeometry>
        </mxCell>
        <mxCell id="kedC6RMu_d--TANpmm6A-30" value="GuiThongTinSanPham(:Product)" style="text;html=1;strokeColor=none;fillColor=none;align=center;verticalAlign=middle;whiteSpace=wrap;rounded=0;" parent="1" vertex="1">
          <mxGeometry x="405" y="240" width="40" height="20" as="geometry" />
        </mxCell>
        <mxCell id="kedC6RMu_d--TANpmm6A-35" value="LuuThongTinSPMoi(:Product)" style="text;html=1;strokeColor=none;fillColor=none;align=center;verticalAlign=middle;whiteSpace=wrap;rounded=0;" parent="1" vertex="1">
          <mxGeometry x="650" y="410" width="40" height="20" as="geometry" />
        </mxCell>
        <mxCell id="kedC6RMu_d--TANpmm6A-36" value="XacNhanLuuThanhCong(:Product)" style="html=1;verticalAlign=bottom;endArrow=open;dashed=1;endSize=8;entryX=1.02;entryY=0.85;entryDx=0;entryDy=0;entryPerimeter=0;exitX=0.04;exitY=0.836;exitDx=0;exitDy=0;exitPerimeter=0;" parent="1" edge="1" target="kedC6RMu_d--TANpmm6A-21" source="kedC6RMu_d--TANpmm6A-22">
          <mxGeometry x="0.0476" relative="1" as="geometry">
            <mxPoint x="780" y="470" as="sourcePoint" />
            <mxPoint x="570" y="440" as="targetPoint" />
            <Array as="points" />
            <mxPoint as="offset" />
          </mxGeometry>
        </mxCell>
        <mxCell id="kedC6RMu_d--TANpmm6A-37" value="ThongBaoKhongHople()" style="html=1;verticalAlign=bottom;endArrow=open;dashed=1;endSize=8;" parent="1" edge="1">
          <mxGeometry relative="1" as="geometry">
            <mxPoint x="555" y="374.5" as="sourcePoint" />
            <mxPoint x="320" y="375" as="targetPoint" />
          </mxGeometry>
        </mxCell>
        <mxCell id="x04-GnUUIprJ974t5tdo-1" value="" style="html=1;points=[];perimeter=orthogonalPerimeter;" vertex="1" parent="1">
          <mxGeometry x="560" y="290" width="10" height="40" as="geometry" />
        </mxCell>
        <mxCell id="x04-GnUUIprJ974t5tdo-2" value="Check(:Product)" style="edgeStyle=orthogonalEdgeStyle;html=1;align=left;spacingLeft=2;endArrow=block;rounded=0;entryX=1;entryY=0;" edge="1" target="x04-GnUUIprJ974t5tdo-1" parent="1">
          <mxGeometry relative="1" as="geometry">
            <mxPoint x="565" y="270" as="sourcePoint" />
            <Array as="points">
              <mxPoint x="590" y="270" />
            </Array>
          </mxGeometry>
        </mxCell>
        <mxCell id="x04-GnUUIprJ974t5tdo-3" value="" style="endArrow=classic;html=1;" edge="1" parent="1" target="kedC6RMu_d--TANpmm6A-22">
          <mxGeometry width="50" height="50" relative="1" as="geometry">
            <mxPoint x="570" y="430" as="sourcePoint" />
            <mxPoint x="780" y="400" as="targetPoint" />
          </mxGeometry>
        </mxCell>
        <mxCell id="kedC6RMu_d--TANpmm6A-22" value="" style="html=1;points=[];perimeter=orthogonalPerimeter;" parent="1" vertex="1">
          <mxGeometry x="780" y="430" width="10" height="50" as="geometry" />
        </mxCell>
        <mxCell id="x04-GnUUIprJ974t5tdo-5" value="" style="endArrow=none;dashed=1;html=1;" edge="1" parent="1" target="kedC6RMu_d--TANpmm6A-22">
          <mxGeometry width="50" height="50" relative="1" as="geometry">
            <mxPoint x="780" y="430" as="sourcePoint" />
            <mxPoint x="780" y="120" as="targetPoint" />
          </mxGeometry>
        </mxCell>
        <mxCell id="x04-GnUUIprJ974t5tdo-6" value="ThongBaoThanhCong()" style="html=1;verticalAlign=bottom;endArrow=open;dashed=1;endSize=8;exitX=-0.1;exitY=0.97;exitDx=0;exitDy=0;exitPerimeter=0;" edge="1" parent="1" source="kedC6RMu_d--TANpmm6A-21">
          <mxGeometry relative="1" as="geometry">
            <mxPoint x="550" y="460" as="sourcePoint" />
            <mxPoint x="318" y="502" as="targetPoint" />
          </mxGeometry>
        </mxCell>
        <mxCell id="x04-GnUUIprJ974t5tdo-8" value="Alter" style="shape=umlFrame;whiteSpace=wrap;html=1;" vertex="1" parent="1">
          <mxGeometry x="190" y="330" width="620" height="190" as="geometry" />
        </mxCell>
        <mxCell id="x04-GnUUIprJ974t5tdo-11" value="" style="html=1;verticalAlign=bottom;endArrow=open;dashed=1;endSize=8;exitX=0.02;exitY=0.969;exitDx=0;exitDy=0;exitPerimeter=0;entryX=1;entryY=0.943;entryDx=0;entryDy=0;entryPerimeter=0;" edge="1" parent="1" source="kedC6RMu_d--TANpmm6A-20" target="kedC6RMu_d--TANpmm6A-15">
          <mxGeometry relative="1" as="geometry">
            <mxPoint x="460" y="410" as="sourcePoint" />
            <mxPoint x="380" y="410" as="targetPoint" />
          </mxGeometry>
        </mxCell>
        <mxCell id="x04-GnUUIprJ974t5tdo-12" value="" style="endArrow=none;dashed=1;html=1;" edge="1" parent="1">
          <mxGeometry width="50" height="50" relative="1" as="geometry">
            <mxPoint x="190" y="405" as="sourcePoint" />
            <mxPoint x="813" y="405" as="targetPoint" />
          </mxGeometry>
        </mxCell>
        <mxCell id="kedC6RMu_d--TANpmm6A-4" value="" style="shape=umlBoundary;whiteSpace=wrap;html=1;" parent="1" vertex="1">
          <mxGeometry x="270" y="115" width="60" height="50" as="geometry" />
        </mxCell>
        <mxCell id="x04-GnUUIprJ974t5tdo-14" value="" style="endArrow=none;dashed=1;html=1;" edge="1" parent="1">
          <mxGeometry width="50" height="50" relative="1" as="geometry">
            <mxPoint x="309" y="240" as="sourcePoint" />
            <mxPoint x="309" y="190" as="targetPoint" />
          </mxGeometry>
        </mxCell>
        <mxCell id="x04-GnUUIprJ974t5tdo-15" value="" style="endArrow=none;dashed=1;html=1;exitX=0.5;exitY=1.007;exitDx=0;exitDy=0;exitPerimeter=0;" edge="1" parent="1" source="kedC6RMu_d--TANpmm6A-20">
          <mxGeometry width="50" height="50" relative="1" as="geometry">
            <mxPoint x="400" y="410" as="sourcePoint" />
            <mxPoint x="310" y="600" as="targetPoint" />
          </mxGeometry>
        </mxCell>
        <mxCell id="x04-GnUUIprJ974t5tdo-16" value="Success" style="text;html=1;strokeColor=none;fillColor=none;align=center;verticalAlign=middle;whiteSpace=wrap;rounded=0;" vertex="1" parent="1">
          <mxGeometry x="230" y="460" width="40" height="20" as="geometry" />
        </mxCell>
        <mxCell id="x04-GnUUIprJ974t5tdo-17" value="Failure" style="text;html=1;strokeColor=none;fillColor=none;align=center;verticalAlign=middle;whiteSpace=wrap;rounded=0;" vertex="1" parent="1">
          <mxGeometry x="230" y="370" width="40" height="20" as="geometry" />
        </mxCell>
      </root>
    </mxGraphModel>
  </diagram>
</mxfile>
